<svg xmlns="http://www.w3.org/2000/svg" width="10666" height="1550"><path fill="#7A1C1C" d="M10642 0h24v1550H0V681h5v-2h12v-2h12v-2h12v-2h12v-2h12v-2h12v-2h12v-2h12v-2h12v-2h12v-2h12v-2h12v-2h12v-2h12v-2h12v-2h12v-2h12v-2h12v-2h12v-2h12v-2h12v-2h12v-2h12v-2h12v-2h16v-2h16v-2h16v-2h16v-2h16v-2h16v-2h16v-2h16v-2h16v-2h16v-2h16v-2h16v-2h16v-2h16v-2h16v-2h16v-2h16v-2h16v-2h16v-2h16v-2h16v-2h16v-2h16v-2h16v-2h16v-2h16v-2h16v-2h16v-2h16v-2h18v-2h20v-2h18v-2h20v-2h20v-2h20v-2h20v-2h20v-2h18v-2h20v-2h20v-2h20v-2h20v-2h20v-2h18v-2h20v-2h20v-2h20v-2h20v-2h20v-2h18v-2h20v-2h20v-2h20v-2h20v-2h22v-2h24v-2h26v-2h24v-2h24v-2h26v-2h24v-2h26v-2h24v-2h24v-2h26v-2h24v-2h26v-2h24v-2h24v-2h26v-2h24v-2h26v-2h24v-2h24v-2h26v-2h32v-2h34v-2h36v-2h34v-2h36v-2h34v-2h36v-2h34v-2h36v-2h34v-2h36v-2h34v-2h36v-2h34v-2h36v-2h34v-2h36v-2h54v-2h56v-2h54v-2h56v-2h54v-2h56v-2h54v-2h56v-2h82v-2h98v-2h98v-2h98v-2h856v2h70v2h72v2h70v2h72v2h70v2h72v2h70v2h66v2h42v2h42v2h40v2h42v2h42v2h40v2h42v2h42v2h40v2h42v2h42v2h40v2h34v2h28v2h28v2h28v2h28v2h28v2h28v2h28v2h28v2h28v2h28v2h28v2h28v2h28v2h28v2h28v2h28v2h28v2h28v2h28v2h28v2h22v2h20v2h22v2h22v2h20v2h22v2h20v2h22v2h22v2h20v2h22v2h20v2h22v2h22v2h20v2h22v2h20v2h22v2h22v2h20v2h22v2h16v2h18v2h18v2h16v2h18v2h16v2h18v2h16v2h18v2h18v2h16v2h18v2h16v2h18v2h16v2h18v2h18v2h16v2h18v2h16v2h18v2h16v2h18v2h18v2h16v2h18v2h16v2h18v2h16v2h16v2h14v2h14v2h14v2h14v2h14v2h14v2h14v2h16v2h14v2h14v2h14v2h14v2h14v2h14v2h14v2h14v2h16v2h14v2h14v2h14v2h14v2h14v2h14v2h14v2h14v2h16v2h14v2h14v2h14v2h14v2h14v2h14v2h14v2h14v2h16v2h14v2h14v2h14v2h14v2h14v2h14v2h14v2h14v2h14v2h14v2h14v2h14v2h14v2h14v2h14v2h14v2h14v2h14v2h14v2h14v2h14v2h14v2h16v2h18v2h20v2h18v2h18v2h20v2h18v2h18v2h20v2h18v2h18v2h20v2h18v2h30v2h30v2h30v2h30v2h30v2h30v2h30v2h30v2h506v-2h26v-2h24v-2h26v-2h26v-2h24v-2h26v-2h26v-2h24v-2h26v-2h26v-2h24v-2h26v-2h16v-2h14v-2h14v-2h14v-2h14v-2h14v-2h14v-2h14v-2h14v-2h14v-2h14v-2h14v-2h14v-2h14v-2h14v-2h14v-2h14v-2h14v-2h14v-2h14v-2h14v-2h10v-2h8v-2h10v-2h10v-2h8v-2h10v-2h10v-2h8v-2h10v-2h10v-2h8v-2h10v-2h10v-2h8v-2h10v-2h10v-2h8v-2h10v-2h10v-2h8v-2h10v-2h10v-2h8v-2h10v-2h10v-2h6v-2h8v-2h8v-2h8v-2h8v-2h8v-2h6v-2h8v-2h8v-2h8v-2h8v-2h8v-2h6v-2h8v-2h8v-2h8v-2h8v-2h8v-2h6v-2h8v-2h8v-2h8v-2h8v-2h8v-2h6v-2h6v-2h6v-2h6v-2h6v-2h6v-2h6v-2h6v-2h6v-2h6v-2h6v-2h6v-2h6v-2h6v-2h6v-2h6v-2h6v-2h6v-2h6v-2h6v-2h6v-2h6v-2h6v-2h6v-2h6v-2h6v-2h6v-2h6v-2h6v-2h6v-2h6v-2h6v-2h6v-2h6v-2h6v-2h6v-2h6v-2h6v-2h6v-2h6v-2h6v-2h6v-2h6v-2h6v-2h6v-2h6v-2h6v-2h6v-2h6v-2h6v-2h6v-2h6v-2h4v-2h4v-2h6v-2h4v-2h6v-2h4v-2h4v-2h6v-2h4v-2h4v-2h6v-2h4v-2h4v-2h6v-2h4v-2h6v-2h4v-2h4v-2h6v-2h4v-2h4v-2h6v-2h4v-2h4v-2h6v-2h4v-2h6v-2h4v-2h4v-2h6v-2h4v-2h4v-2h6v-2h4v-2h4v-2h6v-2h4v-2h6v-2h4v-2h4v-2h6v-2h4v-2h4v-2h6v-2h4v-2h4v-2h4v-2h4v-2h4v-2h4v-2h4v-2h4v-2h4v-2h4v-2h4v-2h4v-2h4v-2h4v-2h4v-2h4v-2h4v-2h4v-2h4v-2h4v-2h4v-2h4v-2h4v-2h4v-2h4v-2h4v-2h4v-2h4v-2h4v-2h4v-2h4v-2h4v-2h4v-2h4v-2h4v-2h4v-2h4v-2h4v-2h4v-2h4v-2h4v-2h4v-2h4v-2h4v-2h4v-2h4v-2h4v-2h4v-2h4v-2h4v-2h4v-2h4v-2h4v-2h4v-2h4v-2h4v-2h4v-2h4v-2h4v-2h4v-2h2v-2h4v-2h4v-2h2v-2h4v-2h4v-2h2v-2h4v-2h4v-2h2v-2h4v-2h4v-2h2v-2h4v-2h4v-2h2v-2h4v-2h4v-2h2v-2h4v-2h4v-2h2v-2h4v-2h4v-2h2v-2h4v-2h4v-2h2v-2h4v-2h4v-2h2v-2h4v-2h4v-2h2v-2h4v-2h4v-2h2v-2h4v-2h4v-2h2v-2h4v-2h4v-2h2v-2h4v-2h4v-2h2v-2h4v-2h4v-2h2v-2h4v-2h2v-2h4v-2h2v-2h4v-2h2v-2h4v-2h2v-2h4v-2h2v-2h4v-2h2v-2h4v-2h2v-2h4v-2h2v-2h4v-2h2v-2h4v-2h2v-2h4v-2h2v-2h4v-2h2v-2h4v-2h2v-2h4v-2h2v-2h4v-2h2v-2h4v-2h2v-2h4v-2h2v-2h4v-2h2v-2h4v-2h2v-2h4v-2h2v-2h4v-2h2v-2h4v-2h2v-2h2v-2h4v-2h2v-2h4v-2h2v-2h2v-2h4v-2h2v-2h2v-2h4v-2h2v-2h2v-2h4v-2h2v-2h4v-2h2v-2h2v-2h4v-2h2v-2h2v-2h4v-2h2v-2h2v-2h4v-2h2v-2h4v-2h2v-2h2v-2h4v-2h2v-2h2v-2h4v-2h2v-2h2v-2h4v-2h2v-2h4v-2h2v-2h2v-2h4v-2h2v-2h2v-2h4v-2h2v-2h4v-2h2V9h4V7h2V5h4V3h2z"/></svg>